<svg width="22" height="19" version="1.1" xmlns="http://www.w3.org/2000/svg" xmlns:xlink="http://www.w3.org/1999/xlink" style=""><rect id="backgroundrect" width="100%" height="100%" x="0" y="0" fill="none" stroke="none" style="" class=""/>
    <!-- Generator: sketchtool 51.3 (57544) - http://www.bohemiancoding.com/sketch -->
    <title>A944D552-EAB0-471D-8D56-5E6E5AA6E459</title>
    <desc>Created with sketchtool.</desc>
    <defs/>
    
<g class="currentLayer" style=""><title>Layer 1</title><g id="RETAILERS" stroke="none" stroke-width="1" fill="#bc75f9" fill-rule="evenodd" class="selected" fill-opacity="1" opacity="1">
        <g id="Cart" fill="#bc75f9" fill-rule="nonzero" fill-opacity="1" opacity="1">
            <g id="header" fill="#bc75f9" fill-opacity="1" opacity="1">
                <g id="Shopping-cart" fill="#bc75f9" fill-opacity="1" opacity="1">
                    <path d="M8.463894844055176,14.43681001663208 C7.188727855682373,14.445655345916748 6.161078453063965,15.52679967880249 6.166833400726318,16.853561878204346 C6.172480583190918,18.180315494537354 7.209283828735352,19.251930713653564 8.484450340270996,19.24900484085083 C9.759501457214355,19.24607515335083 10.791790962219238,18.169708728790283 10.791790962219238,16.842936038970947 C10.791790962219238,16.202003955841064 10.5460844039917,15.587550640106201 10.10909366607666,15.135850429534912 C9.6719970703125,14.684152126312256 9.079856872558594,14.432538509368896 8.463894844055176,14.43681001663208 zM8.463894844055176,17.64497995376587 C8.038200378417969,17.64497995376587 7.693015098571777,17.28589105606079 7.693015098571777,16.842936038970947 C7.693015098571777,16.399981021881104 8.038200378417969,16.040894031524658 8.463894844055176,16.040894031524658 C8.889599800109863,16.040894031524658 9.234667778015137,16.399981021881104 9.234667778015137,16.842936038970947 C9.234667778015137,17.28589105606079 8.889599800109863,17.64497995376587 8.463894844055176,17.64497995376587 z" id="Shape" fill="#bc75f9" fill-opacity="1" opacity="1"/>
                    <path d="M14.630621910095215,14.43681001663208 C13.355454444885254,14.445655345916748 12.327912330627441,15.52679967880249 12.333549499511719,16.853561878204346 C12.339197158813477,18.180315494537354 13.376001358032227,19.251930713653564 14.651167869567871,19.24900484085083 C15.926334381103516,19.24607515335083 16.95850944519043,18.169708728790283 16.9586238861084,16.842936038970947 C16.9586238861084,16.202003955841064 16.712800979614258,15.587550640106201 16.27581024169922,15.135850429534912 C15.838821411132812,14.684152126312256 15.246572494506836,14.432538509368896 14.630621910095215,14.43681001663208 zM14.630621910095215,17.64497995376587 C14.204916000366211,17.64497995376587 13.859731674194336,17.28589105606079 13.859731674194336,16.842936038970947 C13.859731674194336,16.399981021881104 14.204916000366211,16.040894031524658 14.630621910095215,16.040894031524658 C15.056317329406738,16.040894031524658 15.401500701904297,16.399981021881104 15.401500701904297,16.842936038970947 C15.401500701904297,17.28589105606079 15.056317329406738,17.64497995376587 14.630621910095215,17.64497995376587 z" id="Shape" fill="#bc75f9" fill-opacity="1" opacity="1"/>
                    <path d="M4.1424665451049805,2.293976306915283 L3.7145142555236816,0 L0.7643407583236694,0 C0.34214264154434204,0 0,0.34234924614429474 0,0.7646603584289551 C0,1.1869665384292603 0.34214264154434204,1.5293160676956177 0.7643407583236694,1.5293160676956177 L2.445779800415039,1.5293160676956177 L4.845593452453613,14.436756610870361 L17.074356079101562,14.436756610870361 C17.49643898010254,14.436756610870361 17.838581085205078,14.094406604766846 17.838581085205078,13.672098636627197 C17.838581085205078,13.249786853790283 17.49643898010254,12.9074387550354 17.074356079101562,12.9074387550354 L6.114328384399414,12.9074387550354 L5.8545074462890625,11.469882488250732 L18.7099552154541,11.469882488250732 C19.462207794189453,11.480824947357178 20.110689163208008,10.942380428314209 20.23851203918457,10.20054578781128 L21.583688735961914,2.293976306915283 L4.1424665451049805,2.293976306915283 zM18.7099552154541,9.940566539764404 L5.564084529876709,9.940566539764404 L4.494083404541016,3.8232927322387695 L19.779958724975586,3.8232927322387695 L18.7099552154541,9.940566539764404 z" id="Shape" fill="#bc75f9" fill-opacity="1" opacity="1"/>
                </g>
            </g>
        </g>
    </g></g></svg>