<svg width="24" height="20" version="1.1" xmlns="http://www.w3.org/2000/svg" xmlns:xlink="http://www.w3.org/1999/xlink" style=""><rect id="backgroundrect" width="100%" height="100%" x="0" y="0" fill="none" stroke="none"/>
    <!-- Generator: sketchtool 51.3 (57544) - http://www.bohemiancoding.com/sketch -->
    <title>A944D552-EAB0-471D-8D56-5E6E5AA6E459</title>
    <desc>Created with sketchtool.</desc>
    <defs/>
    
<g class="currentLayer" style=""><title>Layer 1</title><g id="RETAILERS" stroke="none" stroke-width="1" fill="#5664db" fill-rule="evenodd" class="selected" fill-opacity="1">
        <g id="Cart" fill="#5664db" fill-rule="nonzero" fill-opacity="1">
            <g id="header" fill="#5664db" fill-opacity="1">
                <g id="Shopping-cart" fill="#5664db" fill-opacity="1">
                    <path d="M8.82314757524881,14.31030435743287 C7.54798059235867,14.319150154630961 6.52033158334234,15.400294569013568 6.5260862194813285,16.72705608488718 C6.531733637030754,18.053810739564597 7.568536540349555,19.125424952428375 8.843703523239697,19.122498652249988 C10.11875471005311,19.1195689214735 11.151044139625697,18.043203330242704 11.151044139625697,16.716429807275745 C11.151044139625697,16.075498025648812 10.905336873292413,15.461045315448473 10.468346496687673,15.009345324958531 C10.031249759242087,14.557647049767638 9.439109794797105,14.306033262799701 8.82314757524881,14.31030435743287 zM8.82314757524881,17.518474482721786 C8.397452891491639,17.518474482721786 8.052268217762446,17.159385203211514 8.052268217762446,16.716429807275745 C8.052268217762446,16.273476126639025 8.397452891491639,15.914388562427803 8.82314757524881,15.914388562427803 C9.24885255199058,15.914388562427803 9.59392057189433,16.273476126639025 9.59392057189433,16.716429807275745 C9.59392057189433,17.159385203211514 9.24885255199058,17.518474482721786 8.82314757524881,17.518474482721786 z" id="Shape" fill="#5664db" fill-opacity="1"/>
                    <path d="M14.989874503350507,14.31030435743287 C13.714707520460365,14.319150154630961 12.687164872284882,15.400294569013568 12.692802854598426,16.72705608488718 C12.698450272147852,18.053810739564597 13.73525403321537,19.125424952428375 15.01042101610551,19.122498652249988 C16.285587998995652,19.1195689214735 17.31776163249151,18.043203330242704 17.31787657081952,16.716429807275745 C17.31787657081952,16.075498025648812 17.072054366158227,15.461045315448473 16.635063989553487,15.009345324958531 C16.198073612948747,14.557647049767638 15.605825572165486,14.306033262799701 14.989874503350507,14.31030435743287 zM14.989874503350507,17.518474482721786 C14.56416866886002,17.518474482721786 14.218984852879544,17.159385203211514 14.218984852879544,16.716429807275745 C14.218984852879544,16.273476126639025 14.56416866886002,15.914388562427803 14.989874503350507,15.914388562427803 C15.415570044856395,15.914388562427803 15.760753860836871,16.273476126639025 15.760753860836871,16.716429807275745 C15.760753860836871,17.159385203211514 15.415570044856395,17.518474482721786 14.989874503350507,17.518474482721786 z" id="Shape" fill="#5664db" fill-opacity="1"/>
                    <path d="M4.501719477914321,2.1674710353101148 L4.073767199535325,-0.12650537531777672 L1.123593669559284,-0.12650537531777672 C0.7013955984449183,-0.12650537531777672 0.35925293053878704,0.21584387194400279 0.35925293053878704,0.6381550005823158 C0.35925293053878704,1.0604611977358616 0.7013955984449183,1.4028106594100223 1.123593669559284,1.4028106594100223 L2.805032688707385,1.4028106594100223 L5.204846550907547,14.310251183162336 L17.433609174141793,14.310251183162336 C17.85569187805379,14.310251183162336 18.197834117085563,13.967901507075794 18.197834117085563,13.545593165798437 C18.197834117085563,13.12328139392298 17.85569187805379,12.780933433135488 17.433609174141793,12.780933433135488 L6.473581276172666,12.780933433135488 L6.213760612458117,11.343377321058824 L19.06920902969432,11.343377321058824 C19.821461516053205,11.354319213695362 20.469941847192672,10.81587483497492 20.597765276422706,10.074040586763203 L21.942941709553452,2.1674710353101148 L4.501719477914321,2.1674710353101148 zM19.06920902969432,9.814061286331025 L5.923337618910693,9.814061286331025 L4.853336409268536,3.696787284450295 L20.139211097085195,3.696787284450295 L19.06920902969432,9.814061286331025 z" id="Shape" fill="#5664db" fill-opacity="1"/>
                </g>
            </g>
        </g>
    </g></g></svg>