<svg enable-background="new 0 0 40 40" version="1.1" xml:space="preserve" xmlns="http://www.w3.org/2000/svg" xmlns:xlink="http://www.w3.org/1999/xlink" width="35" height="40" style=""><rect id="backgroundrect" width="100%" height="100%" x="0" y="0" fill="none" stroke="none"/><g class="currentLayer" style=""><title>Layer 1</title><g id="svg_1" class="" fill-opacity="1" fill="#5664db"><path d="M25.59999990463257,40 H9.400000095367432 c-3.299999952316284,0 -5.900000095367432,-2.700000047683716 -5.900000095367432,-5.900000095367432 V16 c0,-0.6000000238418579 0.4000000059604645,-1 1,-1 s1,0.4000000059604645 1,1 v18.100000381469727 c0,2.200000047683716 1.7999999523162842,3.9000000953674316 3.9000000953674316,3.9000000953674316 H25.59999990463257 c2.200000047683716,0 3.9000000953674316,-1.7999999523162842 3.9000000953674316,-3.9000000953674316 V16 c0,-0.6000000238418579 0.4000000059604645,-1 1,-1 s1,0.4000000059604645 1,1 v18.100000381469727 C31.500001430511475,37.29999923706055 28.80000066757202,40 25.59999990463257,40 z" id="svg_2" fill="#5664db"/></g><g id="svg_3" class="" fill-opacity="1" fill="#5664db"><path d="M30.899999141693115,4.900000095367432 h-7.599999904632568 C22.80000066757202,2.0999999046325684 20.399999141693115,0 17.499999523162842,0 s-5.300000190734863,2.0999999046325684 -5.800000190734863,4.900000095367432 H4.099999904632568 c-2.299999952316284,0 -4.099999904632568,1.7999999523162842 -4.099999904632568,4.099999904632568 S1.799999713897705,13 4.099999904632568,13 h26.899999618530273 c2.299999952316284,0 4.099999904632568,-1.7999999523162842 4.099999904632568,-4.099999904632568 S33.19999837875366,4.900000095367432 30.899999141693115,4.900000095367432 zM17.499999523162842,2 c1.7999999523162842,0 3.299999952316284,1.2000000476837158 3.700000047683716,2.9000000953674316 h-7.5 C14.200000286102295,3.200000047683716 15.700000286102295,2 17.499999523162842,2 zM30.899999141693115,11 H4.099999904632568 c-1.100000023841858,0 -2.0999999046325684,-0.8999999761581421 -2.0999999046325684,-2.0999999046325684 c0,-1.100000023841858 0.8999999761581421,-2.0999999046325684 2.0999999046325684,-2.0999999046325684 h26.899999618530273 c1.100000023841858,0 2.0999999046325684,0.8999999761581421 2.0999999046325684,2.0999999046325684 C33.000001430511475,10.100000381469727 32.09999990463257,11 30.899999141693115,11 z" id="svg_4" fill="#5664db"/></g><g id="svg_5" class="" fill-opacity="1" fill="#5664db"><path d="M10.499999523162842,35.099998474121094 c-0.6000000238418579,0 -1,-0.4000000059604645 -1,-1 V17.399999618530273 c0,-0.6000000238418579 0.4000000059604645,-1 1,-1 s1,0.4000000059604645 1,1 v16.700000762939453 C11.499999523162842,34.599998474121094 10.999999523162842,35.099998474121094 10.499999523162842,35.099998474121094 z" id="svg_6" fill="#5664db"/></g><g id="svg_7" class="selected" fill-opacity="1" fill="#5664db"><path d="M24.499999523162842,35.099998474121094 c-0.6000000238418579,0 -1,-0.4000000059604645 -1,-1 V17.399999618530273 c0,-0.6000000238418579 0.4000000059604645,-1 1,-1 s1,0.4000000059604645 1,1 v16.700000762939453 C25.499999523162842,34.599998474121094 24.999999523162842,35.099998474121094 24.499999523162842,35.099998474121094 z" id="svg_8" fill="#5664db"/></g><g id="svg_9" class="" fill-opacity="1" fill="#5664db"><path d="M17.499999523162842,35.099998474121094 c-0.6000000238418579,0 -1,-0.4000000059604645 -1,-1 V17.399999618530273 c0,-0.6000000238418579 0.4000000059604645,-1 1,-1 s1,0.4000000059604645 1,1 v16.700000762939453 C18.499999523162842,34.599998474121094 17.999999523162842,35.099998474121094 17.499999523162842,35.099998474121094 z" id="svg_10" fill="#5664db"/></g></g></svg>